<svg width="115" height="115" viewBox="0 0 115 115" fill="none" xmlns="http://www.w3.org/2000/svg">
  <defs>
    <filter id="shadow" x="-20" y="-20" width="200" height="200" filterUnits="userSpaceOnUse" color-interpolation-filters="sRGB">
      <feFlood flood-opacity="0" result="BackgroundImageFix"/>
      <feColorMatrix in="SourceAlpha" type="matrix" values="0 0 0 0 0 0 0 0 0 0 0 0 0 0 0 0 0 0 127 0"/>
      <feOffset dy="3"/>
      <feGaussianBlur stdDeviation="4"/>
      <feColorMatrix type="matrix" values="0 0 0 0 0 0 0 0 0 0 0 0 0 0 0 0 0 0 0.18 0"/>
      <feBlend mode="normal" in2="BackgroundImageFix" result="effect1_dropShadow"/>
      <feBlend mode="normal" in="SourceGraphic" in2="effect1_dropShadow" result="shape"/>
    </filter>

    <filter id="shadow_caption" x="-20" y="-20" width="200" height="200" filterUnits="userSpaceOnUse" color-interpolation-filters="sRGB">
      <feFlood flood-opacity="0" result="BackgroundImageFix"/>
      <feColorMatrix in="SourceAlpha" type="matrix" values="0 0 0 0 0 0 0 0 0 0 0 0 0 0 0 0 0 0 127 0"/>
      <feOffset dy="2"/>
      <feGaussianBlur stdDeviation="3"/>
      <feColorMatrix type="matrix" values="0 0 0 0 0 0 0 0 0 0 0 0 0 0 0 0 0 0 0.20 0"/>
      <feBlend mode="normal" in2="BackgroundImageFix" result="effect1_dropShadow"/>
      <feBlend mode="normal" in="SourceGraphic" in2="effect1_dropShadow" result="shape"/>
    </filter>

    <clipPath id="clip">
      <rect width="115" height="115" rx="20" fill="white"/>
    </clipPath>
  </defs>

  <g clip-path="url(#clip)">
    <!-- light backdrop -->
    <rect width="115" height="115" fill="#F6F8FA"/>

    <!-- screen frame -->
    <g filter="url(#shadow)">
      <rect x="14" y="16" width="87" height="62" rx="12" fill="#111827" fill-opacity="0.92"/>
      <rect x="18" y="20" width="79" height="54" rx="10" fill="white"/>
      <rect x="18" y="20" width="79" height="54" rx="10" stroke="#E5E7EB" stroke-width="1"/>
    </g>

    <!-- slide title: ●■▲ as a lead mark (no top menu bar) -->
    <g>
      <circle cx="28" cy="28" r="3.2" fill="#3ACBD4"/>
      <rect x="33.5" y="24.8" width="6.4" height="6.4" rx="1.6" fill="#2B95B5"/>
      <path d="M46.5 24.8 L50.1 31.2 H42.9 L46.5 24.8 Z" fill="#FFBB13"/>

      <!-- title line -->
      <rect x="54" y="26" width="33" height="4" rx="2" fill="#CBD5E1"/>
    </g>

    <!-- slide content -->
    <g>
      <rect x="26" y="36" width="56" height="3" rx="1.5" fill="#E2E8F0"/>
      <rect x="26" y="42" width="50" height="3" rx="1.5" fill="#E2E8F0"/>
      <rect x="26" y="48" width="54" height="3" rx="1.5" fill="#E2E8F0"/>
      <rect x="26" y="54" width="40" height="3" rx="1.5" fill="#E2E8F0"/>
    </g>

    <!-- caption attached to screen bottom -->
    <g filter="url(#shadow_caption)">
      <rect x="22" y="64" width="71" height="16" rx="7" fill="#2E2E2E" fill-opacity="0.82"/>
    </g>
    <g>
      <rect x="31" y="68.5" width="53" height="3" rx="1.5" fill="white" fill-opacity="0.92"/>
      <rect x="38" y="74" width="39" height="3" rx="1.5" fill="white" fill-opacity="0.92"/>
    </g>

    <!-- stand (moved slightly down to avoid caption overlap) -->
    <g>
      <rect x="56" y="82" width="3" height="14" rx="1.5" fill="#9CA3AF"/>
      <path d="M40 98 L57.5 86 L75 98" stroke="#9CA3AF" stroke-width="3" stroke-linecap="round" stroke-linejoin="round"/>
    </g>
  </g>
</svg>
